<?xml version="1.0" encoding="utf-8"?>
<svg version="1.1" id="Layer_1" xmlns="http://www.w3.org/2000/svg" xmlns:xlink="http://www.w3.org/1999/xlink" x="0px" y="0px"
	 viewBox="0 0 800 800" style="enable-background:new 0 0 800 800;" xml:space="preserve">
<style type="text/css">
	.st0{fill:#F0D043;}
	.st1{fill:#6277BA;}
	.st2{fill:#4A5699;}
	.st3{fill:#F3A43D;}
	.st4{fill:#C45FA0;}
	.st5{fill:#E7685F;}
</style>
<g>
	<path class="st0" d="M160.9,284.3c-8.8,0-15.9,7.2-15.9,16.1c0,8.9,7.1,16.1,15.9,16.1c8.8,0,15.9-7.2,15.9-16.1
		C176.8,291.5,169.7,284.3,160.9,284.3z"/>
	<path class="st1" d="M208.1,316.8l-0.5-0.3c-4.1-2.5-9.5-1.2-12,3l-58.4,97.7c-2.5,4.2-1.2,9.6,2.9,12.1l0.5,0.3
		c4.1,2.5,9.5,1.2,12-3l58.4-97.7C213.5,324.7,212.2,319.3,208.1,316.8L208.1,316.8z"/>
	<path class="st2" d="M317,412.5H144.6c-4.9,0-8.8,4-8.8,8.8v0.6c0,4.9,4,8.8,8.8,8.8H317c4.9,0,8.8-4,8.8-8.8v-0.6
		C325.8,416.4,321.9,412.5,317,412.5z"/>
	<path class="st3" d="M325.9,419.4L285,300.8c-1.5-4.4-6.2-6.7-10.5-5.1l-0.6,0.2c-4.3,1.6-6.6,6.4-5.1,10.7l41.7,118.7
		c1.4,4,5.9,6,10,4.4l0.5-0.2C325.1,428,327.3,423.5,325.9,419.4L325.9,419.4z"/>
	<path class="st4" d="M242,368.6l-31.3-49.4c-2.6-4.1-8-5.3-12.1-2.7l-0.5,0.3c-4.1,2.6-5.2,8.1-2.6,12.2l31.3,49.4
		c2.6,4.1,8,5.3,12.1,2.7l0.5-0.3C243.4,378.1,244.6,372.7,242,368.6z"/>
	<path class="st5" d="M281.2,296.5l-0.5-0.3c-4.2-2.3-9.5-0.8-11.9,3.3L227,369.7c-2.6,4.4-1.3,10,3,12.5l0.6,0.3
		c4.3,2.5,9.9,0.9,12.5-3.5l41.3-70.9C286.8,304,285.3,298.8,281.2,296.5L281.2,296.5z"/>
	<g>
		<path class="st1" d="M374.6,357.9c-0.9,0-1.4-0.4-1.7-1.6c-0.9-3.4-2.3-5.1-4.3-5.1c-1.4,0-2.1,1.1-2.1,2.6
			c0,4.5,6.7,9.7,15.2,15.5c9.2,6.2,16.2,16.5,16.2,27c0,19-11.4,34.2-30,34.2c-21.6,0-31.5-15.6-31.5-38.3c0-0.7,0.6-1.4,1.7-1.4
			l19.6-1c1,0,1.6,0.6,1.7,1.8c0.6,5.7,3,11.8,6.4,11.8c2,0,3.3-1.3,3.3-4.5c0-3.4-8-9.7-17.5-17.3c-9.5-7.7-14.2-18.3-14.2-28
			c0-14.5,10.8-30.2,29.8-30.2s30.8,14.9,30.8,31.8c0,1-0.6,1.8-1.7,1.8L374.6,357.9z"/>
		<path class="st2" d="M417.3,430.1c-0.8,0-1.5-0.6-1.5-1.5v-56.5c0-0.8-0.6-1.3-1.4-1.3h-10.8c-0.6,0-1.4-0.9-1.4-1.5v-19.3
			c0-0.6,0.3-1.1,1-1.1h46.3c0.8,0,1.4,0.4,1.4,1.3v19c0,0.9-0.6,1.5-1.5,1.5h-10.8c-0.8,0-1.3,0.5-1.3,1.5v56.4
			c0,0.8-0.6,1.4-1.5,1.4H417.3z"/>
		<path class="st4" d="M454,373.7c0-16.8,10.5-24.9,22.5-24.9s22.5,8.1,22.5,24.9v32c0,16.7-10.6,24.8-22.5,24.8
			c-11.9,0-22.5-8-22.5-24.8V373.7z M474.7,405.4c0,1.6,0.5,2.8,1.7,2.8s1.7-1.2,1.7-2.8V374c0-1.4-0.5-2.9-1.7-2.9
			s-1.7,1.4-1.7,2.9V405.4z"/>
		<path class="st5" d="M528,349c9.5,0,20.9,7.4,20.9,20.6c0,5.8-1.1,16.5-11.4,18.1v0.2c13.2,3.8,13.2,10.8,13.2,21.8
			c0,1.3,0.5,2.6,2.9,3.6c0.5,0.3,1,1.1,1,1.5c0,14.7-10.8,15.6-14.4,15.6c-7.8,0-13-5.4-13-15.6v-16.7c0-3.5-1.5-5.2-2.7-5.2
			c-0.6,0-0.8,0.5-0.8,1.3v34.6c0,0.6-0.5,1.3-1.3,1.3H504c-0.8,0-1.3-0.5-1.3-1.4v-78.4c0-0.8,0.5-1.3,1.2-1.3H528z M523.7,382.7
			c0,0.8,0.2,1,0.8,1c2.6,0,2.6-3,2.6-8c0-2.5-1.5-3.9-2.5-3.9c-0.5,0-0.9,0.3-0.9,1V382.7z"/>
		<path class="st3" d="M548.5,349.9c-0.1-0.3,0.1-0.9,0.6-0.9h19.7c0.5,0,1,0.3,1.2,1.1l5.2,22.4c0.1,0.5,0.4,0.9,0.5,0.9
			c0.2,0,0.5-0.3,0.5-0.9l5-22.1c0.2-0.8,0.6-1.4,1.3-1.4h18.8c0.6,0,1.1,0.6,0.9,1.3l-14.2,45.5c-0.4,1.5-1,4.5-1,5.7v27.1
			c-0.1,0.8-0.6,1.4-1.5,1.4h-21.1c-0.6,0-1.2-0.8-1.3-1.3v-27.5c0-1.6-0.2-2.9-1-5.3L548.5,349.9z"/>
	</g>
</g>
</svg>
