<svg id="Layer_1" data-name="Layer 1" xmlns="http://www.w3.org/2000/svg" viewBox="0 0 466.44 146.57"><defs><style>.cls-1{fill:#f0d043;}.cls-2{fill:#6277ba;}.cls-3{fill:#4a5699;}.cls-4{fill:#f3a43d;}.cls-5{fill:#c45fa0;}.cls-6{fill:#e7685f;}</style></defs><path class="cls-1" d="M160.9,284.3a16.1,16.1,0,1,0,15.9,16.1A16,16,0,0,0,160.9,284.3Z" transform="translate(-135.8 -284.3)"/><path class="cls-2" d="M208.1,316.8l-.5-.3a8.7,8.7,0,0,0-12,3l-58.4,97.7a8.85,8.85,0,0,0,2.9,12.1l.5.3a8.7,8.7,0,0,0,12-3L211,328.9a8.85,8.85,0,0,0-2.9-12.1Z" transform="translate(-135.8 -284.3)"/><path class="cls-3" d="M317,412.5H144.6a8.81,8.81,0,0,0-8.8,8.8v.6a8.81,8.81,0,0,0,8.8,8.8H317a8.81,8.81,0,0,0,8.8-8.8v-.6A8.75,8.75,0,0,0,317,412.5Z" transform="translate(-135.8 -284.3)"/><path class="cls-4" d="M325.9,419.4,285,300.8a8.1,8.1,0,0,0-10.5-5.1l-.6.2a8.52,8.52,0,0,0-5.1,10.7l41.7,118.7a7.57,7.57,0,0,0,10,4.4l.5-.2a8,8,0,0,0,4.9-10.1Z" transform="translate(-135.8 -284.3)"/><path class="cls-5" d="M242,368.6l-31.3-49.4a8.75,8.75,0,0,0-12.1-2.7l-.5.3a8.84,8.84,0,0,0-2.6,12.2l31.3,49.4a8.75,8.75,0,0,0,12.1,2.7l.5-.3A9,9,0,0,0,242,368.6Z" transform="translate(-135.8 -284.3)"/><path class="cls-6" d="M281.2,296.5l-.5-.3a8.89,8.89,0,0,0-11.9,3.3L227,369.7a9,9,0,0,0,3,12.5l.6.3a9.24,9.24,0,0,0,12.5-3.5l41.3-70.9a8.42,8.42,0,0,0-3.2-11.6Z" transform="translate(-135.8 -284.3)"/><path class="cls-2" d="M374.6,357.9c-.9,0-1.4-.4-1.7-1.6-.9-3.4-2.3-5.1-4.3-5.1-1.4,0-2.1,1.1-2.1,2.6,0,4.5,6.7,9.7,15.2,15.5,9.2,6.2,16.2,16.5,16.2,27,0,19-11.4,34.2-30,34.2-21.6,0-31.5-15.6-31.5-38.3a1.52,1.52,0,0,1,1.7-1.4l19.6-1c1,0,1.6.6,1.7,1.8.6,5.7,3,11.8,6.4,11.8,2,0,3.3-1.3,3.3-4.5,0-3.4-8-9.7-17.5-17.3s-14.2-18.3-14.2-28c0-14.5,10.8-30.2,29.8-30.2S398,338.3,398,355.2a1.65,1.65,0,0,1-1.7,1.8Z" transform="translate(-135.8 -284.3)"/><path class="cls-3" d="M417.3,430.1a1.47,1.47,0,0,1-1.5-1.5V372.1a1.29,1.29,0,0,0-1.4-1.3H403.6a1.81,1.81,0,0,1-1.4-1.5V350a1,1,0,0,1,1-1.1h46.3a1.24,1.24,0,0,1,1.4,1.3v19a1.42,1.42,0,0,1-1.5,1.5H438.6c-.8,0-1.3.5-1.3,1.5v56.4a1.39,1.39,0,0,1-1.5,1.4H417.3Z" transform="translate(-135.8 -284.3)"/><path class="cls-5" d="M454,373.7c0-16.8,10.5-24.9,22.5-24.9s22.5,8.1,22.5,24.9v32c0,16.7-10.6,24.8-22.5,24.8s-22.5-8-22.5-24.8Zm20.7,31.7c0,1.6.5,2.8,1.7,2.8s1.7-1.2,1.7-2.8V374c0-1.4-.5-2.9-1.7-2.9s-1.7,1.4-1.7,2.9Z" transform="translate(-135.8 -284.3)"/><path class="cls-6" d="M528,349c9.5,0,20.9,7.4,20.9,20.6,0,5.8-1.1,16.5-11.4,18.1v.2c13.2,3.8,13.2,10.8,13.2,21.8,0,1.3.5,2.6,2.9,3.6a2.37,2.37,0,0,1,1,1.5c0,14.7-10.8,15.6-14.4,15.6-7.8,0-13-5.4-13-15.6V398.1c0-3.5-1.5-5.2-2.7-5.2-.6,0-.8.5-.8,1.3v34.6a1.32,1.32,0,0,1-1.3,1.3H504a1.24,1.24,0,0,1-1.3-1.4V350.3a1.18,1.18,0,0,1,1.2-1.3Zm-4.3,33.7c0,.8.2,1,.8,1,2.6,0,2.6-3,2.6-8,0-2.5-1.5-3.9-2.5-3.9a.87.87,0,0,0-.9,1v9.9Z" transform="translate(-135.8 -284.3)"/><path class="cls-4" d="M548.5,349.9c-.1-.3.1-.9.6-.9h19.7a1.24,1.24,0,0,1,1.2,1.1l5.2,22.4c.1.5.4.9.5.9s.5-.3.5-.9l5-22.1c.2-.8.6-1.4,1.3-1.4h18.8a1,1,0,0,1,.9,1.3L588,395.8a32.62,32.62,0,0,0-1,5.7v27.1a1.45,1.45,0,0,1-1.5,1.4H564.4c-.6,0-1.2-.8-1.3-1.3V401.2a15.07,15.07,0,0,0-1-5.3Z" transform="translate(-135.8 -284.3)"/></svg>